<svg width="255" height="240" viewBox="0 0 255 240" fill="none" xmlns="http://www.w3.org/2000/svg">
<g clip-path="url(#clip0_237_234)">
<path d="M0 157.56C0 145.48 9.19 137.71 20.07 137.71C25.56 137.71 31.93 139.67 35.9 146.41L29.7 150.71C27.47 147.45 24.04 145.87 20.29 145.87C13.98 145.87 8.87 150.33 8.87 157.56C8.87 164.79 14.09 169.26 20.35 169.26C24.27 169.26 27.48 167.68 29.71 164.42L35.91 168.72C31.94 175.47 25.52 177.42 20.03 177.42C9.15 177.42 0.01 169.64 0.01 157.57L0 157.56Z" fill="#6D1E39"/>
<path d="M37.47 162.73C37.47 152.88 44.54 148.04 50.96 148.04C55.96 148.04 58.9 150.76 59.34 151.79H59.5V148.58H67.93V176.87H59.5V173.66H59.34C58.9 174.69 55.97 177.41 50.96 177.41C44.54 177.41 37.47 172.57 37.47 162.72V162.73ZM52.7 169.91C56.4 169.91 59.72 167.35 59.72 162.73C59.72 158.11 56.4 155.55 52.7 155.55C49 155.55 45.79 158.16 45.79 162.73C45.79 167.3 49.11 169.91 52.7 169.91Z" fill="#6D1E39"/>
<path d="M90.77 160.88C90.77 157.29 88.81 155.55 86.26 155.55C83.71 155.55 81.47 157.29 81.47 160.88V176.87H73.04V148.58H81.47V152.06C82.99 149.72 85.6 148.03 89.36 148.03C92.68 148.03 95.56 149.44 97.36 152.49C99.1 149.93 102.15 148.03 106.61 148.03C112.59 148.03 116.95 151.84 116.95 160.54V176.86H108.52V160.87C108.52 157.28 106.56 155.54 104 155.54C101.28 155.54 99.21 157.28 99.21 160.87V176.86H90.78V160.87L90.77 160.88Z" fill="#6D1E39"/>
<path d="M130.48 138.25V151.79H130.64C131.07 150.76 134.01 148.04 139.02 148.04C145.44 148.04 152.51 152.88 152.51 162.73C152.51 172.58 145.44 177.42 139.02 177.42C134.02 177.42 131.08 174.7 130.64 173.67H130.48V176.88H122.05V138.26H130.48V138.25ZM137.28 169.91C140.87 169.91 144.19 167.3 144.19 162.73C144.19 158.16 140.87 155.55 137.28 155.55C133.69 155.55 130.26 158.11 130.26 162.73C130.26 167.35 133.58 169.91 137.28 169.91Z" fill="#6D1E39"/>
<path d="M156.26 148.58H164.69V156.25C165.61 151.68 168.33 148.04 173.45 148.04C174.1 148.04 174.75 148.09 175.46 148.31V156.31C174.81 156.2 174.21 156.15 173.5 156.15C167.9 156.15 164.69 159.9 164.69 165.23V176.87H156.26V148.58Z" fill="#6D1E39"/>
<path d="M179.21 138.25H187.64V145.59H179.21V138.25ZM179.21 148.59H187.64V176.88H179.21V148.59Z" fill="#6D1E39"/>
<path d="M191.39 162.73C191.39 152.88 198.46 148.04 204.88 148.04C209.89 148.04 212.82 150.76 213.26 151.79H213.42V148.58H221.85V176.87H213.42V173.66H213.26C212.83 174.69 209.89 177.41 204.88 177.41C198.46 177.41 191.39 172.57 191.39 162.72V162.73ZM206.62 169.91C210.32 169.91 213.64 167.35 213.64 162.73C213.64 158.11 210.32 155.55 206.62 155.55C202.92 155.55 199.71 158.16 199.71 162.73C199.71 167.3 203.03 169.91 206.62 169.91Z" fill="#6D1E39"/>
<path d="M226.96 148.58H235.39V152.17C236.97 149.78 239.74 148.04 243.77 148.04C249.48 148.04 254.32 151.58 254.32 160.22V176.86H245.89V161.68C245.89 158.14 244.09 155.53 240.61 155.53C237.13 155.53 235.39 158.14 235.39 161.68V176.86H226.96V148.57V148.58Z" fill="#6D1E39"/>
<path d="M31.8799 209.36C31.8799 197.28 41.0699 189.51 51.9499 189.51C57.4399 189.51 63.8099 191.47 67.7799 198.21L61.5799 202.51C59.3499 199.25 55.9199 197.67 52.1699 197.67C45.8599 197.67 40.7499 202.13 40.7499 209.36C40.7499 216.59 45.9699 221.06 52.2299 221.06C56.1499 221.06 59.3599 219.48 61.5899 216.22L67.7899 220.52C63.8199 227.27 57.3999 229.22 51.9099 229.22C41.0299 229.22 31.8899 221.44 31.8899 209.37L31.8799 209.36Z" fill="#6D1E39"/>
<path d="M69.3599 214.53C69.3599 204.9 76.9699 199.84 84.3699 199.84C91.7699 199.84 99.3799 204.9 99.3799 214.53C99.3799 224.16 91.7599 229.22 84.3699 229.22C76.9799 229.22 69.3599 224.16 69.3599 214.53ZM84.3699 221.6C88.0099 221.6 91.0599 218.88 91.0599 214.53C91.0599 210.18 88.0099 207.46 84.3699 207.46C80.7299 207.46 77.6799 210.18 77.6799 214.53C77.6799 218.88 80.7299 221.6 84.3699 221.6Z" fill="#6D1E39"/>
<path d="M103.13 190.05H111.56V228.67H103.13V190.05Z" fill="#6D1E39"/>
<path d="M116.67 190.05H125.1V228.67H116.67V190.05Z" fill="#6D1E39"/>
<path d="M128.86 214.59C128.86 205.02 135.99 199.85 143.27 199.85C150.55 199.85 158.88 204.85 157.09 217.8H136.96C138.1 220.85 140.93 222.37 144.68 222.37C147.18 222.37 149.41 221.77 151.48 220.19L155.29 224.16C152.95 227.1 148.93 229.22 143.76 229.22C135.93 229.22 128.86 223.89 128.86 214.59ZM149.69 211.76C149.09 208.5 146.21 206.92 143.38 206.92C140.55 206.92 137.72 208.39 136.8 211.76H149.69Z" fill="#6D1E39"/>
<path d="M166.87 238.3V231.55C168.18 232.42 171 232.96 173.51 232.96C178.84 232.96 181.78 230.46 181.78 226.98V225.46H181.45C181.01 226.49 178.19 229.21 173.29 229.21C166.87 229.21 159.75 224.37 159.75 214.52C159.75 204.67 166.88 199.83 173.29 199.83C178.19 199.83 181.01 202.55 181.45 203.58H181.78V200.37H190.21V226.26C190.21 237.47 181.4 239.97 175.09 239.97C172.04 239.97 168.67 239.48 166.88 238.28L166.87 238.3ZM175.03 221.71C178.73 221.71 181.99 219.15 181.99 214.53C181.99 209.91 178.73 207.35 175.03 207.35C171.33 207.35 168.07 209.96 168.07 214.53C168.07 219.1 171.39 221.71 175.03 221.71Z" fill="#6D1E39"/>
<path d="M193.96 214.59C193.96 205.02 201.08 199.85 208.37 199.85C215.66 199.85 223.98 204.85 222.19 217.8H202.06C203.2 220.85 206.03 222.37 209.78 222.37C212.28 222.37 214.51 221.77 216.58 220.19L220.39 224.16C218.05 227.1 214.03 229.22 208.86 229.22C201.03 229.22 193.96 223.89 193.96 214.59ZM214.79 211.76C214.19 208.5 211.31 206.92 208.48 206.92C205.65 206.92 202.82 208.39 201.9 211.76H214.79Z" fill="#6D1E39"/>
<path d="M172.23 67.56V74C172.23 93.23 163 104.45 155.26 110.47C146.97 116.92 138.57 118.84 138.22 118.92L136.8 119.24L135.38 118.92C135.03 118.84 126.65 116.86 118.37 110.4C110.63 104.35 101.41 93.14 101.41 74.02V35.39H114.29V74.02C114.29 96.82 131.61 104.24 136.85 105.96C142.04 104.29 159.36 96.98 159.36 74.02V61.14L172.24 67.58L172.23 67.56Z" fill="#6D1E39"/>
<path d="M140.04 73.99C140.04 84.4 136.48 91.58 132.1 96.49C133.86 97.66 135.54 98.5 136.86 99.06C139.15 98.1 142.51 96.33 145.52 93.36C150.42 88.53 152.91 82.01 152.91 73.99V61.11L140.03 67.55V73.99H140.04Z" fill="#6D1E39"/>
<path d="M159.65 7.47C157.44 3.06 155.8 0 155.8 0C155.8 0 155 5.3 152.53 9.66C150.05 14.02 145.94 20.23 144.36 23.87C144.36 23.89 144.34 23.91 144.34 23.93C144.34 23.93 140.8 30.9 140.49 36.36C140.47 36.61 140.46 36.85 140.46 37.07C140.46 43.49 144.61 49.49 150.76 51.63C148.86 48.22 148.42 44.57 149.5 39.77C150.64 34.65 153.04 30.4 156.73 24.48C160.77 18 161.72 12.55 159.68 7.48L159.65 7.47Z" fill="#FFC40C"/>
<path d="M94.9701 73.99V28.93H135.42C136.57 25.16 138.07 22.03 138.5 21.17C138.95 20.16 139.52 19.05 140.17 17.88L141.1 16.06H82.0901V74C82.0901 93.12 91.3101 104.34 99.0501 110.38C107.33 116.85 119.91 119.23 119.91 119.23C118.12 118.15 116.26 116.91 114.4 115.46C105.53 108.53 94.9701 95.72 94.9701 74.01V73.99Z" fill="#6D1E39"/>
<path d="M166.43 21.94C165.6 24.07 164.5 26.24 163.11 28.47C159.89 33.64 157.48 37.49 156.83 41.18C156.08 45.4 156.45 49.16 159.34 51.89C166.36 50.35 171.51 44.16 171.51 36.91C171.51 33.06 169.41 28.14 166.43 21.93V21.94Z" fill="#FFC40C"/>
</g>
<defs>
<clipPath id="clip0_237_234">
<rect width="254.32" height="239.99" fill="white"/>
</clipPath>
</defs>
</svg>
