<?xml version="1.0" encoding="UTF-8"?> <svg xmlns="http://www.w3.org/2000/svg" xmlns:xlink="http://www.w3.org/1999/xlink" id="Layer_1" data-name="Layer 1" viewBox="0 0 1920 545"><defs><style>.cls-1{fill:none;}.cls-2{clip-path:url(#clip-path);}.cls-3{clip-path:url(#clip-path-2);}.cls-4{fill:#0071ce;}.cls-5{clip-path:url(#clip-path-3);}.cls-6{fill:#f7be00;}</style><clipPath id="clip-path"><rect class="cls-1" x="7.12" y="8.03" width="1905" height="532"></rect></clipPath><clipPath id="clip-path-2"><rect class="cls-1" x="7.12" y="8.03" width="1904.88" height="532"></rect></clipPath><clipPath id="clip-path-3"><rect class="cls-1" x="7.12" y="8.03" width="1905" height="532"></rect></clipPath></defs><title>logos-web</title><g id="Blue_Logo" data-name="Blue Logo"><g class="cls-2"><g class="cls-3"><path class="cls-4" d="M81.34,408.06C91.65,448.61,127.4,461,155.58,461c22.68,0,46-8.94,46-26.79,0-11.7-6.87-19.95-26.11-26.82l-61.87-26.11c-83.85-29.56-88-85.23-88-101,0-70.79,62.54-107.91,138.14-107.91,40.56,0,94.17,11,127.16,74.23l-79,36.43C203,254.8,177.57,249.3,161.76,249.3c-19.24,0-39.17,11-39.17,28.86,0,15.12,15.1,23.37,33,30.24L208.5,329c83.16,24.06,90.72,78.35,90.72,101.72,0,72.18-66.67,109.29-144.33,109.29-52.23,0-123.72-16.5-147.78-90Z"></path></g><g class="cls-5"><path class="cls-4" d="M515.74,172.32c103.09,0,193.82,74.22,193.82,183.51,0,110-90.73,184.2-193.82,184.2-102.41,0-193.82-73.55-193.82-184.2,0-110,91.41-183.51,193.82-183.51m0,279.73c50.86,0,94.17-41.24,94.17-96.22,0-54.29-43.31-95.54-94.17-95.54-50.18,0-94.16,40.56-94.16,95.54,0,55.67,44,96.22,94.16,96.22"></path></g><g class="cls-3"><rect class="cls-4" x="1383.8" y="179.88" width="102.41" height="352.59"></rect><path class="cls-4" d="M1892.88,470.6C1842.71,525.59,1776,540,1728.61,540c-130.58,0-202.06-81.8-202.06-182.15,0-103.78,81.1-185.56,194.5-185.56,97.59,0,191.08,67.35,191.08,207.56H1628.27c2.06,44,42.61,76.28,107.9,76.28,36.44,0,72.85-18.55,97.61-41.92ZM1630.33,318H1807c-6.86-45.36-52.92-62.54-87.28-62.54-33,0-77,15.12-89.35,62.54"></path></g><g class="cls-5"><path class="cls-4" d="M1032.42,144.2,1011.17,94C995.92,57,957.4,28,905.68,28S777.21,56.85,777.21,159.27v23.35H713.9V260.3h63.31V532.46h102.4V142.76c0-15.12,9.86-33,26.11-33,14.48,0,18.08,6.06,29.76,34.43Z"></path><path class="cls-4" d="M1247.68,179.88l-99.49,237.81-99.51-235.06H951.42C979,247.54,1098,532.47,1098,532.47h101.73l147.08-352.59Z"></path><path class="cls-6" d="M1435,39A38.08,38.08,0,1,1,1396.93,77,38.12,38.12,0,0,1,1435,39M1435,8a69,69,0,1,0,69,69,69,69,0,0,0-69-69"></path></g></g></g></svg> 